<svg width="100" height="100" viewBox="0 0 100 100" xmlns="http://www.w3.org/2000/svg">
  <path d="M25,25 Q35,15 45,25 Q55,35 65,25 Q75,15 85,25 Q95,35 85,45 Q75,55 85,65 Q95,75 85,85 Q75,95 65,85 Q55,75 45,85 Q35,95 25,85 Q15,75 25,65 Q35,55 25,45 Q15,35 25,25 Z" fill="none" stroke="#96705e" stroke-width="2" />
  <circle cx="35" cy="35" r="3" fill="#96705e" />
  <circle cx="65" cy="35" r="3" fill="#96705e" />
  <path d="M40,45 Q50,55 60,45" stroke="#96705e" stroke-width="2" fill="none" />
</svg>

